<mxfile host="app.diagrams.net" modified="2022-10-25T03:51:25.011Z" agent="5.0 (Windows NT 10.0; Win64; x64) AppleWebKit/537.36 (KHTML, like Gecko) Chrome/106.0.0.0 Safari/537.36" etag="AFRsMQzYSzzw-IjWe72x" version="20.4.1" type="github" pages="2">
  <diagram id="n0YX-CEJoB1UbevrSjPl" name="Monolithic Application Architecture">
    <mxGraphModel dx="2742" dy="605" grid="1" gridSize="10" guides="1" tooltips="1" connect="1" arrows="1" fold="1" page="1" pageScale="1" pageWidth="850" pageHeight="1100" math="0" shadow="0">
      <root>
        <mxCell id="0" />
        <mxCell id="1" parent="0" />
        <mxCell id="-gWFEWzkOSPa2LKuE1_3-14" value="" style="shape=image;html=1;verticalAlign=top;verticalLabelPosition=bottom;imageAspect=0;aspect=fixed;image=https://cdn1.iconfinder.com/data/icons/user-pictures/100/male3-128.png;strokeColor=#006658;fontColor=#5C5C5C;fillColor=#21C0A5;" parent="1" vertex="1">
          <mxGeometry x="-820" y="202" width="58" height="58" as="geometry" />
        </mxCell>
        <mxCell id="-gWFEWzkOSPa2LKuE1_3-15" value="" style="shape=image;html=1;verticalAlign=top;verticalLabelPosition=bottom;imageAspect=0;aspect=fixed;image=https://cdn1.iconfinder.com/data/icons/user-pictures/100/female1-128.png;strokeColor=#006658;fontColor=#5C5C5C;fillColor=#21C0A5;" parent="1" vertex="1">
          <mxGeometry x="-770" y="201" width="60" height="60" as="geometry" />
        </mxCell>
        <mxCell id="-gWFEWzkOSPa2LKuE1_3-17" style="edgeStyle=orthogonalEdgeStyle;rounded=0;orthogonalLoop=1;jettySize=auto;html=1;exitX=0.5;exitY=1;exitDx=0;exitDy=0;strokeColor=#006658;fontColor=#5C5C5C;fillColor=#21C0A5;" parent="1" source="-gWFEWzkOSPa2LKuE1_3-14" target="-gWFEWzkOSPa2LKuE1_3-14" edge="1">
          <mxGeometry relative="1" as="geometry" />
        </mxCell>
        <mxCell id="-gWFEWzkOSPa2LKuE1_3-21" value="" style="whiteSpace=wrap;html=1;aspect=fixed;strokeColor=#006658;fontColor=#5C5C5C;fillColor=none;" parent="1" vertex="1">
          <mxGeometry x="-660" y="50" width="90" height="90" as="geometry" />
        </mxCell>
        <mxCell id="-gWFEWzkOSPa2LKuE1_3-45" value="" style="edgeStyle=orthogonalEdgeStyle;rounded=0;orthogonalLoop=1;jettySize=auto;html=1;strokeColor=#006658;fontColor=#5C5C5C;fillColor=#21C0A5;" parent="1" source="-gWFEWzkOSPa2LKuE1_3-28" target="-gWFEWzkOSPa2LKuE1_3-44" edge="1">
          <mxGeometry relative="1" as="geometry" />
        </mxCell>
        <mxCell id="-gWFEWzkOSPa2LKuE1_3-28" value="Source Code Manager" style="text;html=1;strokeColor=none;fillColor=none;align=center;verticalAlign=middle;whiteSpace=wrap;rounded=0;fontColor=#5C5C5C;" parent="1" vertex="1">
          <mxGeometry x="-660" y="80" width="90" height="60" as="geometry" />
        </mxCell>
        <mxCell id="-gWFEWzkOSPa2LKuE1_3-29" value="Developers" style="text;html=1;strokeColor=none;fillColor=none;align=center;verticalAlign=middle;whiteSpace=wrap;rounded=0;fontColor=#5C5C5C;" parent="1" vertex="1">
          <mxGeometry x="-800" y="190" width="60" height="30" as="geometry" />
        </mxCell>
        <mxCell id="-gWFEWzkOSPa2LKuE1_3-30" value="" style="aspect=fixed;html=1;points=[];align=center;image;fontSize=12;image=img/lib/azure2/general/Code.svg;strokeColor=#006658;fontColor=#5C5C5C;fillColor=none;" parent="1" vertex="1">
          <mxGeometry x="-633.46" y="50" width="36.92" height="30" as="geometry" />
        </mxCell>
        <mxCell id="-gWFEWzkOSPa2LKuE1_3-32" value="" style="endArrow=classic;html=1;rounded=0;strokeColor=#006658;fontColor=#5C5C5C;fillColor=#21C0A5;exitX=1;exitY=0.5;exitDx=0;exitDy=0;" parent="1" source="-gWFEWzkOSPa2LKuE1_3-29" edge="1">
          <mxGeometry width="50" height="50" relative="1" as="geometry">
            <mxPoint x="-710" y="180" as="sourcePoint" />
            <mxPoint x="-660" y="130" as="targetPoint" />
          </mxGeometry>
        </mxCell>
        <mxCell id="-gWFEWzkOSPa2LKuE1_3-33" value="" style="verticalLabelPosition=bottom;html=1;verticalAlign=top;align=center;strokeColor=none;fillColor=#21C0A5;shape=mxgraph.azure.github_code;pointerEvents=1;fontColor=#5C5C5C;" parent="1" vertex="1">
          <mxGeometry x="-570" y="30" width="40" height="40" as="geometry" />
        </mxCell>
        <mxCell id="-gWFEWzkOSPa2LKuE1_3-34" value="" style="shape=image;html=1;verticalAlign=top;verticalLabelPosition=bottom;imageAspect=0;aspect=fixed;image=https://cdn4.iconfinder.com/data/icons/socialcones/508/Gitlab-128.png;strokeColor=#006658;fontColor=#5C5C5C;fillColor=none;" parent="1" vertex="1">
          <mxGeometry x="-570" y="75" width="40" height="40" as="geometry" />
        </mxCell>
        <mxCell id="-gWFEWzkOSPa2LKuE1_3-35" value="" style="image;image=img/lib/atlassian/Bitbucket_Logo.svg;strokeColor=#006658;fontColor=#5C5C5C;fillColor=none;" parent="1" vertex="1">
          <mxGeometry x="-560" y="115" width="30" height="25" as="geometry" />
        </mxCell>
        <mxCell id="-gWFEWzkOSPa2LKuE1_3-36" value="1. Commit Codes" style="text;html=1;align=center;verticalAlign=middle;resizable=0;points=[];autosize=1;strokeColor=none;fillColor=none;fontColor=#5C5C5C;" parent="1" vertex="1">
          <mxGeometry x="-780" y="135" width="120" height="30" as="geometry" />
        </mxCell>
        <mxCell id="-gWFEWzkOSPa2LKuE1_3-38" value="Build Tool" style="whiteSpace=wrap;html=1;aspect=fixed;strokeColor=#006658;fontColor=#5C5C5C;fillColor=none;" parent="1" vertex="1">
          <mxGeometry x="-490" y="50" width="80" height="80" as="geometry" />
        </mxCell>
        <mxCell id="-gWFEWzkOSPa2LKuE1_3-39" value="&lt;b&gt;&lt;i&gt;NPM&lt;/i&gt;&lt;/b&gt;" style="whiteSpace=wrap;html=1;strokeColor=#006658;fontColor=#5C5C5C;fillColor=none;" parent="1" vertex="1">
          <mxGeometry x="-450" y="30" width="40" height="30" as="geometry" />
        </mxCell>
        <mxCell id="-gWFEWzkOSPa2LKuE1_3-40" value="&lt;b&gt;&lt;i&gt;Maven&lt;/i&gt;&lt;/b&gt;" style="whiteSpace=wrap;html=1;strokeColor=#006658;fontColor=#5C5C5C;fillColor=none;" parent="1" vertex="1">
          <mxGeometry x="-490" y="30" width="40" height="30" as="geometry" />
        </mxCell>
        <mxCell id="-gWFEWzkOSPa2LKuE1_3-44" value="CICD Tool&lt;br&gt;&lt;b&gt;&lt;i&gt;Jenkins&lt;/i&gt;&lt;/b&gt;" style="whiteSpace=wrap;html=1;strokeColor=#006658;fontColor=#5C5C5C;fillColor=none;" parent="1" vertex="1">
          <mxGeometry x="-675" y="220" width="120" height="60" as="geometry" />
        </mxCell>
        <mxCell id="-gWFEWzkOSPa2LKuE1_3-46" value="2. Code pull" style="text;html=1;strokeColor=none;fillColor=none;align=center;verticalAlign=middle;whiteSpace=wrap;rounded=0;fontColor=#5C5C5C;" parent="1" vertex="1">
          <mxGeometry x="-645" y="165" width="75" height="30" as="geometry" />
        </mxCell>
        <mxCell id="-gWFEWzkOSPa2LKuE1_3-47" value="" style="endArrow=classic;startArrow=classic;html=1;rounded=0;strokeColor=#006658;fontColor=#5C5C5C;fillColor=#21C0A5;exitX=1;exitY=0;exitDx=0;exitDy=0;entryX=0;entryY=1;entryDx=0;entryDy=0;" parent="1" source="-gWFEWzkOSPa2LKuE1_3-44" target="-gWFEWzkOSPa2LKuE1_3-38" edge="1">
          <mxGeometry width="50" height="50" relative="1" as="geometry">
            <mxPoint x="-460" y="310" as="sourcePoint" />
            <mxPoint x="-460" y="140" as="targetPoint" />
          </mxGeometry>
        </mxCell>
        <mxCell id="-gWFEWzkOSPa2LKuE1_3-48" value="3. Integrate and build" style="text;html=1;strokeColor=none;fillColor=none;align=center;verticalAlign=middle;whiteSpace=wrap;rounded=0;fontColor=#5C5C5C;" parent="1" vertex="1">
          <mxGeometry x="-510" y="135" width="130" height="30" as="geometry" />
        </mxCell>
        <mxCell id="-gWFEWzkOSPa2LKuE1_3-50" value="" style="swimlane;startSize=0;strokeColor=#006658;fontColor=#5C5C5C;fillColor=none;" parent="1" vertex="1">
          <mxGeometry x="-665" y="310" width="155" height="90" as="geometry" />
        </mxCell>
        <mxCell id="-gWFEWzkOSPa2LKuE1_3-52" value="Code Quality Analysis Tool" style="text;html=1;align=center;verticalAlign=middle;resizable=0;points=[];autosize=1;strokeColor=none;fillColor=none;fontColor=#5C5C5C;" parent="-gWFEWzkOSPa2LKuE1_3-50" vertex="1">
          <mxGeometry y="50" width="170" height="30" as="geometry" />
        </mxCell>
        <mxCell id="-gWFEWzkOSPa2LKuE1_3-57" value="" style="endArrow=classic;startArrow=classic;html=1;rounded=0;strokeColor=#006658;fontColor=#5C5C5C;fillColor=#21C0A5;entryX=0.5;entryY=1;entryDx=0;entryDy=0;exitX=0.465;exitY=1.06;exitDx=0;exitDy=0;exitPerimeter=0;" parent="1" target="-gWFEWzkOSPa2LKuE1_3-44" edge="1" source="-gWFEWzkOSPa2LKuE1_3-59">
          <mxGeometry width="50" height="50" relative="1" as="geometry">
            <mxPoint x="-615" y="370" as="sourcePoint" />
            <mxPoint x="-570" y="300" as="targetPoint" />
          </mxGeometry>
        </mxCell>
        <mxCell id="-gWFEWzkOSPa2LKuE1_3-59" value="4. Integrate and test" style="text;html=1;align=center;verticalAlign=middle;resizable=0;points=[];autosize=1;strokeColor=none;fillColor=none;fontColor=#5C5C5C;" parent="1" vertex="1">
          <mxGeometry x="-672.5" y="280" width="130" height="30" as="geometry" />
        </mxCell>
        <mxCell id="lnZVJrbV3pISOHpiNBGS-1" value="Artifactory&lt;br&gt;&lt;b&gt;&lt;i&gt;Nexus or JFrog&lt;/i&gt;&lt;/b&gt;" style="whiteSpace=wrap;html=1;aspect=fixed;strokeColor=#006658;fontColor=#5C5C5C;fillColor=none;" vertex="1" parent="1">
          <mxGeometry x="-360" y="70" width="100" height="100" as="geometry" />
        </mxCell>
        <mxCell id="lnZVJrbV3pISOHpiNBGS-2" value="" style="endArrow=classic;startArrow=classic;html=1;rounded=0;strokeColor=#006658;fontColor=#5C5C5C;fillColor=#21C0A5;entryX=0;entryY=1;entryDx=0;entryDy=0;" edge="1" parent="1" target="lnZVJrbV3pISOHpiNBGS-1">
          <mxGeometry width="50" height="50" relative="1" as="geometry">
            <mxPoint x="-550" y="220" as="sourcePoint" />
            <mxPoint x="-500" y="170" as="targetPoint" />
          </mxGeometry>
        </mxCell>
        <mxCell id="lnZVJrbV3pISOHpiNBGS-3" value="5. Integrate and backup" style="text;html=1;strokeColor=none;fillColor=none;align=center;verticalAlign=middle;whiteSpace=wrap;rounded=0;fontColor=#5C5C5C;" vertex="1" parent="1">
          <mxGeometry x="-400" y="172" width="160" height="30" as="geometry" />
        </mxCell>
        <mxCell id="lnZVJrbV3pISOHpiNBGS-5" value="&lt;b&gt;MONOLITHIC APPLICATION ARCHITECTURE&lt;/b&gt;" style="text;html=1;align=center;verticalAlign=middle;resizable=0;points=[];autosize=1;strokeColor=none;fillColor=none;fontColor=#5C5C5C;" vertex="1" parent="1">
          <mxGeometry x="-850" width="280" height="30" as="geometry" />
        </mxCell>
        <mxCell id="lnZVJrbV3pISOHpiNBGS-6" value="" style="swimlane;startSize=0;strokeColor=#006658;fontColor=#5C5C5C;fillColor=none;" vertex="1" parent="1">
          <mxGeometry x="-330" y="202" width="130" height="78" as="geometry" />
        </mxCell>
        <mxCell id="lnZVJrbV3pISOHpiNBGS-9" value="Application Deployment&lt;br&gt;&lt;b&gt;&lt;i&gt;Tomcat or JBoss&lt;/i&gt;&lt;/b&gt;" style="text;html=1;align=center;verticalAlign=middle;resizable=0;points=[];autosize=1;strokeColor=none;fillColor=none;fontColor=#5C5C5C;" vertex="1" parent="lnZVJrbV3pISOHpiNBGS-6">
          <mxGeometry x="-10" y="25" width="150" height="40" as="geometry" />
        </mxCell>
        <mxCell id="lnZVJrbV3pISOHpiNBGS-7" value="" style="endArrow=classic;startArrow=classic;html=1;rounded=0;strokeColor=#006658;fontColor=#5C5C5C;fillColor=#21C0A5;entryX=0.067;entryY=0.325;entryDx=0;entryDy=0;exitX=1;exitY=0.5;exitDx=0;exitDy=0;entryPerimeter=0;" edge="1" parent="1" source="-gWFEWzkOSPa2LKuE1_3-44" target="lnZVJrbV3pISOHpiNBGS-9">
          <mxGeometry width="50" height="50" relative="1" as="geometry">
            <mxPoint x="-450" y="290" as="sourcePoint" />
            <mxPoint x="-400" y="240" as="targetPoint" />
          </mxGeometry>
        </mxCell>
        <mxCell id="lnZVJrbV3pISOHpiNBGS-8" value="6. Integrate and deploy" style="text;html=1;strokeColor=none;fillColor=none;align=center;verticalAlign=middle;whiteSpace=wrap;rounded=0;fontColor=#5C5C5C;" vertex="1" parent="1">
          <mxGeometry x="-470" y="250" width="130" height="30" as="geometry" />
        </mxCell>
        <mxCell id="lnZVJrbV3pISOHpiNBGS-11" value="Web servers / Load Balancers&lt;br&gt;&lt;b&gt;&lt;i&gt;Nginx or HA Proxy or HTTPD&lt;/i&gt;&lt;/b&gt;" style="whiteSpace=wrap;html=1;strokeColor=#006658;fontColor=#5C5C5C;fillColor=none;" vertex="1" parent="1">
          <mxGeometry x="-160" y="217" width="130" height="60" as="geometry" />
        </mxCell>
        <mxCell id="lnZVJrbV3pISOHpiNBGS-12" value="" style="edgeStyle=orthogonalEdgeStyle;rounded=0;orthogonalLoop=1;jettySize=auto;html=1;strokeColor=#006658;fontColor=#5C5C5C;fillColor=#21C0A5;" edge="1" parent="1" source="lnZVJrbV3pISOHpiNBGS-9" target="lnZVJrbV3pISOHpiNBGS-11">
          <mxGeometry relative="1" as="geometry">
            <Array as="points">
              <mxPoint x="-200" y="240" />
              <mxPoint x="-200" y="240" />
            </Array>
          </mxGeometry>
        </mxCell>
        <mxCell id="lnZVJrbV3pISOHpiNBGS-15" value="" style="verticalLabelPosition=bottom;sketch=0;html=1;fillColor=#21C0A5;strokeColor=none;verticalAlign=top;pointerEvents=1;align=center;shape=mxgraph.cisco_safe.people_places_things_icons.icon2;fontColor=#5C5C5C;" vertex="1" parent="1">
          <mxGeometry x="-50" y="379" width="50" height="41" as="geometry" />
        </mxCell>
        <mxCell id="lnZVJrbV3pISOHpiNBGS-16" value="Users" style="text;html=1;strokeColor=none;fillColor=none;align=center;verticalAlign=middle;whiteSpace=wrap;rounded=0;fontColor=#5C5C5C;" vertex="1" parent="1">
          <mxGeometry x="-60" y="349" width="60" height="30" as="geometry" />
        </mxCell>
        <mxCell id="lnZVJrbV3pISOHpiNBGS-17" value="" style="endArrow=classic;html=1;rounded=0;strokeColor=#006658;fontColor=#5C5C5C;fillColor=#21C0A5;entryX=0.652;entryY=1.073;entryDx=0;entryDy=0;entryPerimeter=0;" edge="1" parent="1" target="lnZVJrbV3pISOHpiNBGS-11">
          <mxGeometry width="50" height="50" relative="1" as="geometry">
            <mxPoint x="-30" y="355" as="sourcePoint" />
            <mxPoint x="20" y="305" as="targetPoint" />
          </mxGeometry>
        </mxCell>
        <mxCell id="lnZVJrbV3pISOHpiNBGS-18" value="Monitoring Tools&lt;br&gt;&lt;b&gt;&lt;i&gt;New Relic or Prometheus or Grafana&lt;/i&gt;&lt;/b&gt;" style="whiteSpace=wrap;html=1;aspect=fixed;strokeColor=#006658;fontColor=#5C5C5C;fillColor=none;" vertex="1" parent="1">
          <mxGeometry x="-290" y="340" width="80" height="80" as="geometry" />
        </mxCell>
        <mxCell id="lnZVJrbV3pISOHpiNBGS-19" value="" style="endArrow=classic;startArrow=classic;html=1;fontFamily=Helvetica;fontSize=11;fontColor=#5C5C5C;align=center;strokeColor=#006658;fillColor=#21C0A5;" edge="1" parent="1">
          <mxGeometry width="50" height="50" relative="1" as="geometry">
            <mxPoint x="-210" y="335" as="sourcePoint" />
            <mxPoint x="-160" y="285" as="targetPoint" />
          </mxGeometry>
        </mxCell>
        <mxCell id="lnZVJrbV3pISOHpiNBGS-20" value="7. Monitor applications" style="text;html=1;strokeColor=none;fillColor=none;align=center;verticalAlign=middle;whiteSpace=wrap;rounded=0;fontColor=#5C5C5C;" vertex="1" parent="1">
          <mxGeometry x="-360" y="290" width="210" height="30" as="geometry" />
        </mxCell>
        <mxCell id="-gWFEWzkOSPa2LKuE1_3-60" value="&lt;b&gt;&lt;i&gt;SonarQube&lt;/i&gt;&lt;/b&gt;" style="text;html=1;align=center;verticalAlign=middle;resizable=0;points=[];autosize=1;strokeColor=none;fillColor=none;fontColor=#5C5C5C;" parent="1" vertex="1">
          <mxGeometry x="-625" y="330" width="90" height="30" as="geometry" />
        </mxCell>
        <mxCell id="lnZVJrbV3pISOHpiNBGS-23" value="" style="swimlane;startSize=0;strokeColor=#006658;fontColor=#5C5C5C;fillColor=none;" vertex="1" parent="1">
          <mxGeometry x="-700" y="430" width="120" height="90" as="geometry" />
        </mxCell>
        <mxCell id="lnZVJrbV3pISOHpiNBGS-24" value="Ticketing Tools&lt;br&gt;&lt;b&gt;&lt;i&gt;Jira&lt;/i&gt;&lt;/b&gt;" style="text;html=1;align=center;verticalAlign=middle;resizable=0;points=[];autosize=1;strokeColor=none;fillColor=none;fontColor=#5C5C5C;" vertex="1" parent="lnZVJrbV3pISOHpiNBGS-23">
          <mxGeometry x="10" y="25" width="100" height="40" as="geometry" />
        </mxCell>
        <mxCell id="lnZVJrbV3pISOHpiNBGS-25" value="" style="endArrow=classic;html=1;rounded=0;strokeColor=#006658;fontColor=#5C5C5C;fillColor=#21C0A5;entryX=1;entryY=0.75;entryDx=0;entryDy=0;" edge="1" parent="1" target="lnZVJrbV3pISOHpiNBGS-23">
          <mxGeometry width="50" height="50" relative="1" as="geometry">
            <mxPoint x="-430" y="498" as="sourcePoint" />
            <mxPoint x="-400" y="430" as="targetPoint" />
            <Array as="points" />
          </mxGeometry>
        </mxCell>
        <mxCell id="lnZVJrbV3pISOHpiNBGS-26" value="9. Obtain feedback" style="text;html=1;strokeColor=none;fillColor=none;align=center;verticalAlign=middle;whiteSpace=wrap;rounded=0;fontColor=#5C5C5C;" vertex="1" parent="1">
          <mxGeometry x="-580" y="460" width="130" height="30" as="geometry" />
        </mxCell>
        <mxCell id="lnZVJrbV3pISOHpiNBGS-28" value="" style="swimlane;startSize=0;strokeColor=#006658;fontColor=#5C5C5C;fillColor=none;" vertex="1" parent="1">
          <mxGeometry x="-440" y="440" width="160" height="90" as="geometry" />
        </mxCell>
        <mxCell id="lnZVJrbV3pISOHpiNBGS-30" value="" style="endArrow=classic;html=1;rounded=0;strokeColor=#006658;fontColor=#5C5C5C;fillColor=#21C0A5;exitX=0.615;exitY=1.067;exitDx=0;exitDy=0;exitPerimeter=0;" edge="1" parent="1" source="lnZVJrbV3pISOHpiNBGS-18">
          <mxGeometry width="50" height="50" relative="1" as="geometry">
            <mxPoint x="-310" y="470" as="sourcePoint" />
            <mxPoint x="-280" y="470" as="targetPoint" />
          </mxGeometry>
        </mxCell>
        <mxCell id="lnZVJrbV3pISOHpiNBGS-31" value="Log Analysis Tools&lt;br&gt;&lt;b&gt;&lt;i&gt;Nagios or Graylog &lt;br&gt;or ELK Stack&lt;/i&gt;&lt;/b&gt;" style="text;html=1;align=center;verticalAlign=middle;resizable=0;points=[];autosize=1;strokeColor=none;fillColor=none;fontColor=#5C5C5C;" vertex="1" parent="1">
          <mxGeometry x="-425" y="455" width="130" height="60" as="geometry" />
        </mxCell>
        <mxCell id="lnZVJrbV3pISOHpiNBGS-32" value="8. Analyse logs/networks" style="text;html=1;align=center;verticalAlign=middle;resizable=0;points=[];autosize=1;strokeColor=none;fillColor=none;fontColor=#5C5C5C;" vertex="1" parent="1">
          <mxGeometry x="-420" y="415" width="160" height="30" as="geometry" />
        </mxCell>
        <mxCell id="lnZVJrbV3pISOHpiNBGS-34" value="" style="endArrow=classic;html=1;rounded=0;strokeColor=#006658;fontColor=#5C5C5C;fillColor=#21C0A5;" edge="1" parent="1">
          <mxGeometry width="50" height="50" relative="1" as="geometry">
            <mxPoint x="-690" y="430" as="sourcePoint" />
            <mxPoint x="-770" y="280" as="targetPoint" />
            <Array as="points">
              <mxPoint x="-690" y="430" />
            </Array>
          </mxGeometry>
        </mxCell>
        <mxCell id="lnZVJrbV3pISOHpiNBGS-35" value="10. Provide feedback" style="text;html=1;strokeColor=none;fillColor=none;align=center;verticalAlign=middle;whiteSpace=wrap;rounded=0;fontColor=#5C5C5C;" vertex="1" parent="1">
          <mxGeometry x="-851" y="340" width="120" height="30" as="geometry" />
        </mxCell>
      </root>
    </mxGraphModel>
  </diagram>
  <diagram id="q8Q8Tn2mnPcya7eOzfG_" name="Microservice Application Architecture">
    <mxGraphModel dx="1892" dy="1705" grid="1" gridSize="10" guides="1" tooltips="1" connect="1" arrows="1" fold="1" page="1" pageScale="1" pageWidth="850" pageHeight="1100" background="#F1FAEE" math="0" shadow="0">
      <root>
        <mxCell id="0" />
        <mxCell id="1" parent="0" />
        <mxCell id="BVTT12Qqvhb-sS7Ft4Zv-1" value="" style="shape=image;html=1;verticalAlign=top;verticalLabelPosition=bottom;imageAspect=0;aspect=fixed;image=https://cdn1.iconfinder.com/data/icons/user-pictures/100/male3-128.png;strokeColor=#457B9D;fontColor=#1D3557;fillColor=#A8DADC;" vertex="1" parent="1">
          <mxGeometry x="30" y="182" width="58" height="58" as="geometry" />
        </mxCell>
        <mxCell id="BVTT12Qqvhb-sS7Ft4Zv-2" value="" style="shape=image;html=1;verticalAlign=top;verticalLabelPosition=bottom;imageAspect=0;aspect=fixed;image=https://cdn1.iconfinder.com/data/icons/user-pictures/100/female1-128.png;strokeColor=#457B9D;fontColor=#1D3557;fillColor=#A8DADC;" vertex="1" parent="1">
          <mxGeometry x="80" y="181" width="60" height="60" as="geometry" />
        </mxCell>
        <mxCell id="BVTT12Qqvhb-sS7Ft4Zv-3" style="edgeStyle=orthogonalEdgeStyle;rounded=0;orthogonalLoop=1;jettySize=auto;html=1;exitX=0.5;exitY=1;exitDx=0;exitDy=0;strokeColor=#457B9D;fontColor=#1D3557;fillColor=#A8DADC;labelBackgroundColor=#F1FAEE;" edge="1" parent="1" source="BVTT12Qqvhb-sS7Ft4Zv-1" target="BVTT12Qqvhb-sS7Ft4Zv-1">
          <mxGeometry relative="1" as="geometry" />
        </mxCell>
        <mxCell id="BVTT12Qqvhb-sS7Ft4Zv-4" value="" style="whiteSpace=wrap;html=1;aspect=fixed;strokeColor=#457B9D;fontColor=#1D3557;fillColor=none;" vertex="1" parent="1">
          <mxGeometry x="190" y="30" width="90" height="90" as="geometry" />
        </mxCell>
        <mxCell id="BVTT12Qqvhb-sS7Ft4Zv-5" value="" style="edgeStyle=orthogonalEdgeStyle;rounded=0;orthogonalLoop=1;jettySize=auto;html=1;strokeColor=#457B9D;fontColor=#1D3557;fillColor=#A8DADC;labelBackgroundColor=#F1FAEE;" edge="1" parent="1" source="BVTT12Qqvhb-sS7Ft4Zv-6" target="BVTT12Qqvhb-sS7Ft4Zv-17">
          <mxGeometry relative="1" as="geometry" />
        </mxCell>
        <mxCell id="BVTT12Qqvhb-sS7Ft4Zv-6" value="Source Code Manager" style="text;html=1;strokeColor=none;fillColor=none;align=center;verticalAlign=middle;whiteSpace=wrap;rounded=0;fontColor=#1D3557;" vertex="1" parent="1">
          <mxGeometry x="190" y="60" width="90" height="60" as="geometry" />
        </mxCell>
        <mxCell id="BVTT12Qqvhb-sS7Ft4Zv-7" value="Developers" style="text;html=1;strokeColor=none;fillColor=none;align=center;verticalAlign=middle;whiteSpace=wrap;rounded=0;fontColor=#1D3557;" vertex="1" parent="1">
          <mxGeometry x="50" y="170" width="60" height="30" as="geometry" />
        </mxCell>
        <mxCell id="BVTT12Qqvhb-sS7Ft4Zv-8" value="" style="aspect=fixed;html=1;points=[];align=center;image;fontSize=12;image=img/lib/azure2/general/Code.svg;strokeColor=#457B9D;fontColor=#1D3557;fillColor=none;labelBackgroundColor=#F1FAEE;" vertex="1" parent="1">
          <mxGeometry x="216.54" y="30" width="36.92" height="30" as="geometry" />
        </mxCell>
        <mxCell id="BVTT12Qqvhb-sS7Ft4Zv-9" value="" style="endArrow=classic;html=1;rounded=0;strokeColor=#457B9D;fontColor=#1D3557;fillColor=#A8DADC;exitX=1;exitY=0.5;exitDx=0;exitDy=0;labelBackgroundColor=#F1FAEE;" edge="1" parent="1" source="BVTT12Qqvhb-sS7Ft4Zv-7">
          <mxGeometry width="50" height="50" relative="1" as="geometry">
            <mxPoint x="140" y="160" as="sourcePoint" />
            <mxPoint x="190" y="110" as="targetPoint" />
          </mxGeometry>
        </mxCell>
        <mxCell id="BVTT12Qqvhb-sS7Ft4Zv-10" value="" style="verticalLabelPosition=bottom;html=1;verticalAlign=top;align=center;strokeColor=none;fillColor=#A8DADC;shape=mxgraph.azure.github_code;pointerEvents=1;fontColor=#1D3557;" vertex="1" parent="1">
          <mxGeometry x="280" y="10" width="40" height="40" as="geometry" />
        </mxCell>
        <mxCell id="BVTT12Qqvhb-sS7Ft4Zv-11" value="" style="shape=image;html=1;verticalAlign=top;verticalLabelPosition=bottom;imageAspect=0;aspect=fixed;image=https://cdn4.iconfinder.com/data/icons/socialcones/508/Gitlab-128.png;strokeColor=#457B9D;fontColor=#1D3557;fillColor=none;" vertex="1" parent="1">
          <mxGeometry x="280" y="55" width="40" height="40" as="geometry" />
        </mxCell>
        <mxCell id="BVTT12Qqvhb-sS7Ft4Zv-12" value="" style="image;image=img/lib/atlassian/Bitbucket_Logo.svg;strokeColor=#457B9D;fontColor=#1D3557;fillColor=none;labelBackgroundColor=#F1FAEE;" vertex="1" parent="1">
          <mxGeometry x="290" y="95" width="30" height="25" as="geometry" />
        </mxCell>
        <mxCell id="BVTT12Qqvhb-sS7Ft4Zv-13" value="1. Commit Codes" style="text;html=1;align=center;verticalAlign=middle;resizable=0;points=[];autosize=1;strokeColor=none;fillColor=none;fontColor=#1D3557;" vertex="1" parent="1">
          <mxGeometry x="70" y="115" width="120" height="30" as="geometry" />
        </mxCell>
        <mxCell id="BVTT12Qqvhb-sS7Ft4Zv-14" value="Build Tool" style="whiteSpace=wrap;html=1;aspect=fixed;strokeColor=#457B9D;fontColor=#1D3557;fillColor=none;" vertex="1" parent="1">
          <mxGeometry x="360" y="30" width="80" height="80" as="geometry" />
        </mxCell>
        <mxCell id="BVTT12Qqvhb-sS7Ft4Zv-15" value="&lt;b&gt;&lt;i&gt;NPM&lt;/i&gt;&lt;/b&gt;" style="whiteSpace=wrap;html=1;strokeColor=#457B9D;fontColor=#1D3557;fillColor=none;" vertex="1" parent="1">
          <mxGeometry x="400" y="10" width="40" height="30" as="geometry" />
        </mxCell>
        <mxCell id="BVTT12Qqvhb-sS7Ft4Zv-16" value="&lt;b&gt;&lt;i&gt;Maven&lt;/i&gt;&lt;/b&gt;" style="whiteSpace=wrap;html=1;strokeColor=#457B9D;fontColor=#1D3557;fillColor=none;" vertex="1" parent="1">
          <mxGeometry x="360" y="10" width="40" height="30" as="geometry" />
        </mxCell>
        <mxCell id="BVTT12Qqvhb-sS7Ft4Zv-17" value="CICD Tool&lt;br&gt;&lt;b&gt;&lt;i&gt;Jenkins&lt;/i&gt;&lt;/b&gt;" style="whiteSpace=wrap;html=1;strokeColor=#457B9D;fontColor=#1D3557;fillColor=none;" vertex="1" parent="1">
          <mxGeometry x="175" y="200" width="120" height="60" as="geometry" />
        </mxCell>
        <mxCell id="BVTT12Qqvhb-sS7Ft4Zv-18" value="2. Code pull" style="text;html=1;strokeColor=none;fillColor=none;align=center;verticalAlign=middle;whiteSpace=wrap;rounded=0;fontColor=#1D3557;" vertex="1" parent="1">
          <mxGeometry x="205" y="145" width="75" height="30" as="geometry" />
        </mxCell>
        <mxCell id="BVTT12Qqvhb-sS7Ft4Zv-19" value="" style="endArrow=classic;startArrow=classic;html=1;rounded=0;strokeColor=#457B9D;fontColor=#1D3557;fillColor=#A8DADC;exitX=1;exitY=0;exitDx=0;exitDy=0;entryX=0;entryY=1;entryDx=0;entryDy=0;labelBackgroundColor=#F1FAEE;" edge="1" parent="1" source="BVTT12Qqvhb-sS7Ft4Zv-17" target="BVTT12Qqvhb-sS7Ft4Zv-14">
          <mxGeometry width="50" height="50" relative="1" as="geometry">
            <mxPoint x="390" y="290" as="sourcePoint" />
            <mxPoint x="390" y="120" as="targetPoint" />
          </mxGeometry>
        </mxCell>
        <mxCell id="BVTT12Qqvhb-sS7Ft4Zv-20" value="3. Integrate and build" style="text;html=1;strokeColor=none;fillColor=none;align=center;verticalAlign=middle;whiteSpace=wrap;rounded=0;fontColor=#1D3557;" vertex="1" parent="1">
          <mxGeometry x="340" y="115" width="130" height="30" as="geometry" />
        </mxCell>
        <mxCell id="BVTT12Qqvhb-sS7Ft4Zv-21" value="" style="swimlane;startSize=0;strokeColor=#457B9D;fontColor=#1D3557;fillColor=none;" vertex="1" parent="1">
          <mxGeometry x="185" y="290" width="155" height="90" as="geometry" />
        </mxCell>
        <mxCell id="BVTT12Qqvhb-sS7Ft4Zv-22" value="Code Quality Analysis Tool" style="text;html=1;align=center;verticalAlign=middle;resizable=0;points=[];autosize=1;strokeColor=none;fillColor=none;fontColor=#1D3557;" vertex="1" parent="BVTT12Qqvhb-sS7Ft4Zv-21">
          <mxGeometry y="50" width="170" height="30" as="geometry" />
        </mxCell>
        <mxCell id="BVTT12Qqvhb-sS7Ft4Zv-23" value="" style="endArrow=classic;startArrow=classic;html=1;rounded=0;strokeColor=#457B9D;fontColor=#1D3557;fillColor=#A8DADC;entryX=0.5;entryY=1;entryDx=0;entryDy=0;exitX=0.465;exitY=1.06;exitDx=0;exitDy=0;exitPerimeter=0;labelBackgroundColor=#F1FAEE;" edge="1" parent="1" source="BVTT12Qqvhb-sS7Ft4Zv-24" target="BVTT12Qqvhb-sS7Ft4Zv-17">
          <mxGeometry width="50" height="50" relative="1" as="geometry">
            <mxPoint x="235" y="350" as="sourcePoint" />
            <mxPoint x="280" y="280" as="targetPoint" />
          </mxGeometry>
        </mxCell>
        <mxCell id="BVTT12Qqvhb-sS7Ft4Zv-24" value="4. Integrate and test" style="text;html=1;align=center;verticalAlign=middle;resizable=0;points=[];autosize=1;strokeColor=none;fillColor=none;fontColor=#1D3557;" vertex="1" parent="1">
          <mxGeometry x="177.5" y="260" width="130" height="30" as="geometry" />
        </mxCell>
        <mxCell id="BVTT12Qqvhb-sS7Ft4Zv-25" value="Image Build" style="whiteSpace=wrap;html=1;aspect=fixed;strokeColor=#457B9D;fontColor=#1D3557;fillColor=none;" vertex="1" parent="1">
          <mxGeometry x="500" y="55" width="100" height="100" as="geometry" />
        </mxCell>
        <mxCell id="BVTT12Qqvhb-sS7Ft4Zv-26" value="" style="endArrow=classic;startArrow=classic;html=1;rounded=0;strokeColor=#457B9D;fontColor=#1D3557;fillColor=#A8DADC;entryX=0;entryY=1;entryDx=0;entryDy=0;labelBackgroundColor=#F1FAEE;" edge="1" parent="1" target="BVTT12Qqvhb-sS7Ft4Zv-25">
          <mxGeometry width="50" height="50" relative="1" as="geometry">
            <mxPoint x="300" y="200" as="sourcePoint" />
            <mxPoint x="350" y="150" as="targetPoint" />
          </mxGeometry>
        </mxCell>
        <mxCell id="BVTT12Qqvhb-sS7Ft4Zv-27" value="5. Integrate &amp;amp; build Docker containers" style="text;html=1;strokeColor=none;fillColor=none;align=center;verticalAlign=middle;whiteSpace=wrap;rounded=0;fontColor=#1D3557;" vertex="1" parent="1">
          <mxGeometry x="450" y="152" width="220" height="30" as="geometry" />
        </mxCell>
        <mxCell id="BVTT12Qqvhb-sS7Ft4Zv-28" value="&lt;b&gt;MICROSERVICE APPLICATION ARCHITECTURE&lt;/b&gt;" style="text;html=1;align=center;verticalAlign=middle;resizable=0;points=[];autosize=1;strokeColor=none;fillColor=none;fontColor=#1D3557;" vertex="1" parent="1">
          <mxGeometry x="-10" y="-20" width="300" height="30" as="geometry" />
        </mxCell>
        <mxCell id="BVTT12Qqvhb-sS7Ft4Zv-29" value="" style="swimlane;startSize=0;strokeColor=#457B9D;fontColor=#1D3557;fillColor=none;" vertex="1" parent="1">
          <mxGeometry x="580" y="175" width="230" height="81" as="geometry" />
        </mxCell>
        <mxCell id="BVTT12Qqvhb-sS7Ft4Zv-33" value="Service&lt;br&gt;&lt;i style=&quot;font-weight: bold;&quot;&gt;Node Port&amp;nbsp;&lt;/i&gt;" style="whiteSpace=wrap;html=1;strokeColor=#457B9D;fontColor=#1D3557;fillColor=none;" vertex="1" parent="BVTT12Qqvhb-sS7Ft4Zv-29">
          <mxGeometry x="190" y="4" width="40" height="61" as="geometry" />
        </mxCell>
        <mxCell id="-VGZ-4P_h_PqhJ25LR5G-2" value="" style="sketch=0;html=1;dashed=0;whitespace=wrap;fillColor=#A8DADC;strokeColor=#457B9D;points=[[0.005,0.63,0],[0.1,0.2,0],[0.9,0.2,0],[0.5,0,0],[0.995,0.63,0],[0.72,0.99,0],[0.5,1,0],[0.28,0.99,0]];shape=mxgraph.kubernetes.icon;prIcon=master;fontColor=#1D3557;" vertex="1" parent="BVTT12Qqvhb-sS7Ft4Zv-29">
          <mxGeometry y="18" width="50" height="48" as="geometry" />
        </mxCell>
        <mxCell id="-VGZ-4P_h_PqhJ25LR5G-3" value="Controller" style="text;html=1;align=center;verticalAlign=middle;resizable=0;points=[];autosize=1;strokeColor=none;fillColor=none;fontColor=#1D3557;" vertex="1" parent="BVTT12Qqvhb-sS7Ft4Zv-29">
          <mxGeometry x="-20" width="80" height="30" as="geometry" />
        </mxCell>
        <mxCell id="-VGZ-4P_h_PqhJ25LR5G-4" value="" style="sketch=0;html=1;dashed=0;whitespace=wrap;fillColor=#A8DADC;strokeColor=#457B9D;points=[[0.005,0.63,0],[0.1,0.2,0],[0.9,0.2,0],[0.5,0,0],[0.995,0.63,0],[0.72,0.99,0],[0.5,1,0],[0.28,0.99,0]];shape=mxgraph.kubernetes.icon;prIcon=node;fontColor=#1D3557;" vertex="1" parent="BVTT12Qqvhb-sS7Ft4Zv-29">
          <mxGeometry x="90" y="10" width="50" height="26" as="geometry" />
        </mxCell>
        <mxCell id="-VGZ-4P_h_PqhJ25LR5G-8" value="" style="sketch=0;html=1;dashed=0;whitespace=wrap;fillColor=#A8DADC;strokeColor=#457B9D;points=[[0.005,0.63,0],[0.1,0.2,0],[0.9,0.2,0],[0.5,0,0],[0.995,0.63,0],[0.72,0.99,0],[0.5,1,0],[0.28,0.99,0]];shape=mxgraph.kubernetes.icon;prIcon=node;fontColor=#1D3557;" vertex="1" parent="BVTT12Qqvhb-sS7Ft4Zv-29">
          <mxGeometry x="95" y="55" width="50" height="26" as="geometry" />
        </mxCell>
        <mxCell id="-VGZ-4P_h_PqhJ25LR5G-9" value="Worker 2" style="text;html=1;align=center;verticalAlign=middle;resizable=0;points=[];autosize=1;strokeColor=none;fillColor=none;fontColor=#1D3557;" vertex="1" parent="BVTT12Qqvhb-sS7Ft4Zv-29">
          <mxGeometry x="85" y="36" width="70" height="30" as="geometry" />
        </mxCell>
        <mxCell id="BVTT12Qqvhb-sS7Ft4Zv-31" value="" style="endArrow=classic;startArrow=classic;html=1;rounded=0;strokeColor=#457B9D;fontColor=#1D3557;fillColor=#A8DADC;exitX=1;exitY=0.5;exitDx=0;exitDy=0;labelBackgroundColor=#F1FAEE;" edge="1" parent="1" source="BVTT12Qqvhb-sS7Ft4Zv-17">
          <mxGeometry width="50" height="50" relative="1" as="geometry">
            <mxPoint x="400" y="270" as="sourcePoint" />
            <mxPoint x="590" y="220" as="targetPoint" />
          </mxGeometry>
        </mxCell>
        <mxCell id="BVTT12Qqvhb-sS7Ft4Zv-32" value="7. Integrate and deploy docker containers to k8s cluster" style="text;html=1;strokeColor=none;fillColor=none;align=center;verticalAlign=middle;whiteSpace=wrap;rounded=0;fontColor=#1D3557;" vertex="1" parent="1">
          <mxGeometry x="290" y="230" width="310" height="30" as="geometry" />
        </mxCell>
        <mxCell id="BVTT12Qqvhb-sS7Ft4Zv-35" value="" style="verticalLabelPosition=bottom;sketch=0;html=1;fillColor=#A8DADC;strokeColor=none;verticalAlign=top;pointerEvents=1;align=center;shape=mxgraph.cisco_safe.people_places_things_icons.icon2;fontColor=#1D3557;" vertex="1" parent="1">
          <mxGeometry x="800" y="359" width="50" height="41" as="geometry" />
        </mxCell>
        <mxCell id="BVTT12Qqvhb-sS7Ft4Zv-36" value="Users" style="text;html=1;strokeColor=none;fillColor=none;align=center;verticalAlign=middle;whiteSpace=wrap;rounded=0;fontColor=#1D3557;" vertex="1" parent="1">
          <mxGeometry x="790" y="329" width="60" height="30" as="geometry" />
        </mxCell>
        <mxCell id="BVTT12Qqvhb-sS7Ft4Zv-37" value="" style="endArrow=classic;html=1;rounded=0;strokeColor=#457B9D;fontColor=#1D3557;fillColor=#A8DADC;entryX=0.75;entryY=1;entryDx=0;entryDy=0;labelBackgroundColor=#F1FAEE;" edge="1" parent="1" target="BVTT12Qqvhb-sS7Ft4Zv-33">
          <mxGeometry width="50" height="50" relative="1" as="geometry">
            <mxPoint x="820" y="335" as="sourcePoint" />
            <mxPoint x="870" y="285" as="targetPoint" />
          </mxGeometry>
        </mxCell>
        <mxCell id="BVTT12Qqvhb-sS7Ft4Zv-38" value="Monitoring Tools&lt;br&gt;&lt;b&gt;&lt;i&gt;New Relic or Prometheus or Grafana&lt;/i&gt;&lt;/b&gt;" style="whiteSpace=wrap;html=1;aspect=fixed;strokeColor=#457B9D;fontColor=#1D3557;fillColor=none;" vertex="1" parent="1">
          <mxGeometry x="560" y="320" width="80" height="80" as="geometry" />
        </mxCell>
        <mxCell id="BVTT12Qqvhb-sS7Ft4Zv-39" value="" style="endArrow=classic;startArrow=classic;html=1;fontFamily=Helvetica;fontSize=11;fontColor=#1D3557;align=center;strokeColor=#457B9D;fillColor=#A8DADC;entryX=0.304;entryY=1.049;entryDx=0;entryDy=0;entryPerimeter=0;labelBackgroundColor=#F1FAEE;" edge="1" parent="1" target="BVTT12Qqvhb-sS7Ft4Zv-29">
          <mxGeometry width="50" height="50" relative="1" as="geometry">
            <mxPoint x="640" y="315" as="sourcePoint" />
            <mxPoint x="690" y="265" as="targetPoint" />
          </mxGeometry>
        </mxCell>
        <mxCell id="BVTT12Qqvhb-sS7Ft4Zv-40" value="9. Monitor applications" style="text;html=1;strokeColor=none;fillColor=none;align=center;verticalAlign=middle;whiteSpace=wrap;rounded=0;fontColor=#1D3557;" vertex="1" parent="1">
          <mxGeometry x="470" y="280" width="210" height="30" as="geometry" />
        </mxCell>
        <mxCell id="BVTT12Qqvhb-sS7Ft4Zv-41" value="&lt;b&gt;&lt;i&gt;SonarQube&lt;/i&gt;&lt;/b&gt;" style="text;html=1;align=center;verticalAlign=middle;resizable=0;points=[];autosize=1;strokeColor=none;fillColor=none;fontColor=#1D3557;" vertex="1" parent="1">
          <mxGeometry x="225" y="310" width="90" height="30" as="geometry" />
        </mxCell>
        <mxCell id="BVTT12Qqvhb-sS7Ft4Zv-42" value="" style="swimlane;startSize=0;strokeColor=#457B9D;fontColor=#1D3557;fillColor=none;" vertex="1" parent="1">
          <mxGeometry x="150" y="410" width="120" height="90" as="geometry" />
        </mxCell>
        <mxCell id="BVTT12Qqvhb-sS7Ft4Zv-43" value="Ticketing Tools&lt;br&gt;&lt;b&gt;&lt;i&gt;Jira&lt;/i&gt;&lt;/b&gt;" style="text;html=1;align=center;verticalAlign=middle;resizable=0;points=[];autosize=1;strokeColor=none;fillColor=none;fontColor=#1D3557;" vertex="1" parent="BVTT12Qqvhb-sS7Ft4Zv-42">
          <mxGeometry x="10" y="25" width="100" height="40" as="geometry" />
        </mxCell>
        <mxCell id="BVTT12Qqvhb-sS7Ft4Zv-44" value="" style="endArrow=classic;html=1;rounded=0;strokeColor=#457B9D;fontColor=#1D3557;fillColor=#A8DADC;entryX=1;entryY=0.75;entryDx=0;entryDy=0;labelBackgroundColor=#F1FAEE;" edge="1" parent="1" target="BVTT12Qqvhb-sS7Ft4Zv-42">
          <mxGeometry width="50" height="50" relative="1" as="geometry">
            <mxPoint x="420" y="478" as="sourcePoint" />
            <mxPoint x="450" y="410" as="targetPoint" />
            <Array as="points" />
          </mxGeometry>
        </mxCell>
        <mxCell id="BVTT12Qqvhb-sS7Ft4Zv-45" value="11. Obtain feedback" style="text;html=1;strokeColor=none;fillColor=none;align=center;verticalAlign=middle;whiteSpace=wrap;rounded=0;fontColor=#1D3557;" vertex="1" parent="1">
          <mxGeometry x="270" y="440" width="130" height="30" as="geometry" />
        </mxCell>
        <mxCell id="BVTT12Qqvhb-sS7Ft4Zv-46" value="" style="swimlane;startSize=0;strokeColor=#457B9D;fontColor=#1D3557;fillColor=none;" vertex="1" parent="1">
          <mxGeometry x="410" y="420" width="160" height="90" as="geometry" />
        </mxCell>
        <mxCell id="BVTT12Qqvhb-sS7Ft4Zv-47" value="" style="endArrow=classic;html=1;rounded=0;strokeColor=#457B9D;fontColor=#1D3557;fillColor=#A8DADC;exitX=0.615;exitY=1.067;exitDx=0;exitDy=0;exitPerimeter=0;labelBackgroundColor=#F1FAEE;" edge="1" parent="1" source="BVTT12Qqvhb-sS7Ft4Zv-38">
          <mxGeometry width="50" height="50" relative="1" as="geometry">
            <mxPoint x="540" y="450" as="sourcePoint" />
            <mxPoint x="570" y="450" as="targetPoint" />
          </mxGeometry>
        </mxCell>
        <mxCell id="BVTT12Qqvhb-sS7Ft4Zv-48" value="Log Analysis Tools&lt;br&gt;&lt;b&gt;&lt;i&gt;Nagios or Graylog &lt;br&gt;or ELK Stack&lt;/i&gt;&lt;/b&gt;" style="text;html=1;align=center;verticalAlign=middle;resizable=0;points=[];autosize=1;strokeColor=none;fillColor=none;fontColor=#1D3557;" vertex="1" parent="1">
          <mxGeometry x="425" y="435" width="130" height="60" as="geometry" />
        </mxCell>
        <mxCell id="BVTT12Qqvhb-sS7Ft4Zv-49" value="10. Analyse logs/networks" style="text;html=1;align=center;verticalAlign=middle;resizable=0;points=[];autosize=1;strokeColor=none;fillColor=none;fontColor=#1D3557;" vertex="1" parent="1">
          <mxGeometry x="430" y="395" width="160" height="30" as="geometry" />
        </mxCell>
        <mxCell id="BVTT12Qqvhb-sS7Ft4Zv-50" value="" style="endArrow=classic;html=1;rounded=0;strokeColor=#457B9D;fontColor=#1D3557;fillColor=#A8DADC;labelBackgroundColor=#F1FAEE;" edge="1" parent="1">
          <mxGeometry width="50" height="50" relative="1" as="geometry">
            <mxPoint x="160" y="410" as="sourcePoint" />
            <mxPoint x="80" y="260" as="targetPoint" />
            <Array as="points">
              <mxPoint x="160" y="410" />
            </Array>
          </mxGeometry>
        </mxCell>
        <mxCell id="BVTT12Qqvhb-sS7Ft4Zv-51" value="12. Provide feedback" style="text;html=1;strokeColor=none;fillColor=none;align=center;verticalAlign=middle;whiteSpace=wrap;rounded=0;fontColor=#1D3557;" vertex="1" parent="1">
          <mxGeometry x="-1" y="320" width="120" height="30" as="geometry" />
        </mxCell>
        <mxCell id="mC1ytGFi2W8Qnnx13sLE-1" value="" style="swimlane;startSize=0;strokeColor=#457B9D;fontColor=#1D3557;fillColor=none;" vertex="1" parent="1">
          <mxGeometry x="680" width="160" height="90" as="geometry" />
        </mxCell>
        <mxCell id="mC1ytGFi2W8Qnnx13sLE-7" value="Container Repository&lt;br&gt;&lt;b&gt;&lt;i&gt;DockerHub, Nexus, ECR&lt;/i&gt;&lt;/b&gt;" style="text;html=1;align=center;verticalAlign=middle;resizable=0;points=[];autosize=1;strokeColor=none;fillColor=none;fontColor=#1D3557;" vertex="1" parent="mC1ytGFi2W8Qnnx13sLE-1">
          <mxGeometry y="10" width="160" height="40" as="geometry" />
        </mxCell>
        <mxCell id="mC1ytGFi2W8Qnnx13sLE-4" value="" style="endArrow=classic;html=1;rounded=0;strokeColor=#457B9D;fontColor=#1D3557;fillColor=#A8DADC;exitX=1;exitY=0.75;exitDx=0;exitDy=0;labelBackgroundColor=#F1FAEE;" edge="1" parent="1" source="BVTT12Qqvhb-sS7Ft4Zv-25">
          <mxGeometry width="50" height="50" relative="1" as="geometry">
            <mxPoint x="630" y="90" as="sourcePoint" />
            <mxPoint x="680" y="40" as="targetPoint" />
            <Array as="points">
              <mxPoint x="680" y="40" />
            </Array>
          </mxGeometry>
        </mxCell>
        <mxCell id="mC1ytGFi2W8Qnnx13sLE-5" value="6. Docker push" style="text;html=1;strokeColor=none;fillColor=none;align=center;verticalAlign=middle;whiteSpace=wrap;rounded=0;fontColor=#1D3557;" vertex="1" parent="1">
          <mxGeometry x="600" y="50" width="60" height="30" as="geometry" />
        </mxCell>
        <mxCell id="-VGZ-4P_h_PqhJ25LR5G-7" value="Worker 1" style="text;html=1;align=center;verticalAlign=middle;resizable=0;points=[];autosize=1;strokeColor=none;fillColor=none;fontColor=#1D3557;" vertex="1" parent="1">
          <mxGeometry x="665" y="165" width="70" height="30" as="geometry" />
        </mxCell>
        <mxCell id="-VGZ-4P_h_PqhJ25LR5G-10" value="" style="sketch=0;aspect=fixed;html=1;points=[];align=center;image;fontSize=12;image=img/lib/mscae/Docker.svg;strokeColor=#457B9D;fontColor=#1D3557;fillColor=none;labelBackgroundColor=#F1FAEE;" vertex="1" parent="1">
          <mxGeometry x="520" y="111" width="50" height="41" as="geometry" />
        </mxCell>
        <mxCell id="-VGZ-4P_h_PqhJ25LR5G-12" value="" style="endArrow=classic;html=1;rounded=0;strokeColor=#457B9D;fontColor=#1D3557;fillColor=#A8DADC;entryX=0.063;entryY=1;entryDx=0;entryDy=0;entryPerimeter=0;labelBackgroundColor=#F1FAEE;" edge="1" parent="1" target="mC1ytGFi2W8Qnnx13sLE-1">
          <mxGeometry width="50" height="50" relative="1" as="geometry">
            <mxPoint x="690" y="200" as="sourcePoint" />
            <mxPoint x="740" y="150" as="targetPoint" />
          </mxGeometry>
        </mxCell>
        <mxCell id="-VGZ-4P_h_PqhJ25LR5G-13" value="8. Docker pull" style="text;html=1;align=center;verticalAlign=middle;resizable=0;points=[];autosize=1;strokeColor=none;fillColor=none;fontColor=#1D3557;" vertex="1" parent="1">
          <mxGeometry x="650" y="135" width="100" height="30" as="geometry" />
        </mxCell>
      </root>
    </mxGraphModel>
  </diagram>
</mxfile>
